<svg class="foot" name="print">
  <path class="big toe" d="M 185 103, l -15 -20, l 0 -50, l 40 -30, l 50 30, l 5 60, l -15 28 z" fill="transparent" stroke="#FFF"></path>
  <path class="long toe" fill="transparent" stroke="#FFF" d="M 135 120, l -20 -50, l 10 -30, l 30 15, l 15 50, l -10 20 z"></path>
  <path class="middle toe" fill="transparent" stroke="#FFF" d="M 93 135, l -15 -40, l 10 -30, l 20 10, l 17 45, l -10 25 z"></path>
  <path class="ring toe" fill="transparent" stroke="#FFF" d="M 60 160, l -12 -30, l 5 -30, l 20 5, l 15 40, l -5 20 z"></path>
  <path class="pinky toe" fill="transparent" stroke="#FFF" d="M 25 180, l -10 -25, l 5 -25, l 20 5, l 15 35, l -10 20 z"></path>

  <path d="M 40 210, l 145 -77, l 65 18, l 15 100, l -20 40, l -30 30" fill="transparent" stroke="#FFF"></path>
  <path d="M 40 210, l -5 120, l 50 70" fill="transparent" stroke="#FFF"></path>
  <path fill="transparent" stroke="#FFF" d="M 60 365, l 10 90, l -10 50, l 20 60, l 60 40, l 50 0, l 50 -50, l 5 -50, l -10 -50, l -10 -50, l 5 -100"></path>
</svg>